<mxfile host="app.diagrams.net" modified="2023-04-29T07:36:01.754Z" agent="Mozilla/5.0 (Windows NT 10.0; Win64; x64) AppleWebKit/537.36 (KHTML, like Gecko) Chrome/109.0.0.0 Safari/537.36" etag="J7PpXRdUbq5OPc0cTyDp" version="21.2.3" type="github">
  <diagram id="C5RBs43oDa-KdzZeNtuy" name="Page-1">
    <mxGraphModel dx="1434" dy="708" grid="1" gridSize="10" guides="1" tooltips="1" connect="1" arrows="1" fold="1" page="1" pageScale="1" pageWidth="827" pageHeight="1169" math="0" shadow="0">
      <root>
        <mxCell id="WIyWlLk6GJQsqaUBKTNV-0" />
        <mxCell id="WIyWlLk6GJQsqaUBKTNV-1" parent="WIyWlLk6GJQsqaUBKTNV-0" />
        <mxCell id="pO2ebxaiHmQb0jXmbqPL-63" value="ax_user" style="rounded=0;whiteSpace=wrap;html=1;" vertex="1" parent="WIyWlLk6GJQsqaUBKTNV-1">
          <mxGeometry x="120" y="140" width="120" height="60" as="geometry" />
        </mxCell>
        <mxCell id="pO2ebxaiHmQb0jXmbqPL-64" value="ax_admin" style="rounded=0;whiteSpace=wrap;html=1;" vertex="1" parent="WIyWlLk6GJQsqaUBKTNV-1">
          <mxGeometry x="560" y="140" width="120" height="60" as="geometry" />
        </mxCell>
        <mxCell id="pO2ebxaiHmQb0jXmbqPL-67" value="预约" style="rhombus;whiteSpace=wrap;html=1;rounded=0;" vertex="1" parent="WIyWlLk6GJQsqaUBKTNV-1">
          <mxGeometry x="150" y="270" width="60" height="50" as="geometry" />
        </mxCell>
        <mxCell id="pO2ebxaiHmQb0jXmbqPL-69" value="n" style="text;html=1;align=center;verticalAlign=middle;resizable=0;points=[];autosize=1;strokeColor=none;fillColor=none;" vertex="1" parent="WIyWlLk6GJQsqaUBKTNV-1">
          <mxGeometry x="175" y="218" width="30" height="30" as="geometry" />
        </mxCell>
        <mxCell id="pO2ebxaiHmQb0jXmbqPL-72" value="发布" style="rhombus;whiteSpace=wrap;html=1;rounded=0;fontStyle=1" vertex="1" parent="WIyWlLk6GJQsqaUBKTNV-1">
          <mxGeometry x="590" y="270" width="60" height="50" as="geometry" />
        </mxCell>
        <mxCell id="pO2ebxaiHmQb0jXmbqPL-75" value="" style="endArrow=none;html=1;rounded=0;entryX=0.5;entryY=1;entryDx=0;entryDy=0;" edge="1" parent="WIyWlLk6GJQsqaUBKTNV-1" source="pO2ebxaiHmQb0jXmbqPL-67" target="pO2ebxaiHmQb0jXmbqPL-63">
          <mxGeometry width="50" height="50" relative="1" as="geometry">
            <mxPoint x="390" y="280" as="sourcePoint" />
            <mxPoint x="440" y="230" as="targetPoint" />
          </mxGeometry>
        </mxCell>
        <mxCell id="pO2ebxaiHmQb0jXmbqPL-76" value="" style="endArrow=none;html=1;rounded=0;entryX=1;entryY=0.5;entryDx=0;entryDy=0;exitX=0;exitY=0.5;exitDx=0;exitDy=0;" edge="1" parent="WIyWlLk6GJQsqaUBKTNV-1" source="pO2ebxaiHmQb0jXmbqPL-78" target="pO2ebxaiHmQb0jXmbqPL-67">
          <mxGeometry width="50" height="50" relative="1" as="geometry">
            <mxPoint x="350" y="270" as="sourcePoint" />
            <mxPoint x="350" y="200" as="targetPoint" />
          </mxGeometry>
        </mxCell>
        <mxCell id="pO2ebxaiHmQb0jXmbqPL-77" value="" style="endArrow=none;html=1;rounded=0;entryX=0.5;entryY=1;entryDx=0;entryDy=0;" edge="1" parent="WIyWlLk6GJQsqaUBKTNV-1">
          <mxGeometry width="50" height="50" relative="1" as="geometry">
            <mxPoint x="619.5" y="268" as="sourcePoint" />
            <mxPoint x="619.5" y="198" as="targetPoint" />
          </mxGeometry>
        </mxCell>
        <mxCell id="pO2ebxaiHmQb0jXmbqPL-78" value="ax_meet" style="rounded=0;whiteSpace=wrap;html=1;" vertex="1" parent="WIyWlLk6GJQsqaUBKTNV-1">
          <mxGeometry x="354" y="265" width="120" height="60" as="geometry" />
        </mxCell>
        <mxCell id="pO2ebxaiHmQb0jXmbqPL-79" value="ax_news" style="rounded=0;whiteSpace=wrap;html=1;" vertex="1" parent="WIyWlLk6GJQsqaUBKTNV-1">
          <mxGeometry x="750" y="265" width="120" height="60" as="geometry" />
        </mxCell>
        <mxCell id="pO2ebxaiHmQb0jXmbqPL-80" value="" style="endArrow=none;html=1;rounded=0;entryX=0;entryY=0.5;entryDx=0;entryDy=0;exitX=1;exitY=0.5;exitDx=0;exitDy=0;" edge="1" parent="WIyWlLk6GJQsqaUBKTNV-1" source="pO2ebxaiHmQb0jXmbqPL-78" target="pO2ebxaiHmQb0jXmbqPL-72">
          <mxGeometry width="50" height="50" relative="1" as="geometry">
            <mxPoint x="480" y="295" as="sourcePoint" />
            <mxPoint x="220" y="305" as="targetPoint" />
          </mxGeometry>
        </mxCell>
        <mxCell id="pO2ebxaiHmQb0jXmbqPL-81" value="" style="endArrow=none;html=1;rounded=0;entryX=1;entryY=0.5;entryDx=0;entryDy=0;" edge="1" parent="WIyWlLk6GJQsqaUBKTNV-1" source="pO2ebxaiHmQb0jXmbqPL-79" target="pO2ebxaiHmQb0jXmbqPL-72">
          <mxGeometry width="50" height="50" relative="1" as="geometry">
            <mxPoint x="484" y="305" as="sourcePoint" />
            <mxPoint x="600" y="305" as="targetPoint" />
          </mxGeometry>
        </mxCell>
        <mxCell id="pO2ebxaiHmQb0jXmbqPL-82" value="关联" style="rhombus;whiteSpace=wrap;html=1;rounded=0;" vertex="1" parent="WIyWlLk6GJQsqaUBKTNV-1">
          <mxGeometry x="384" y="360" width="60" height="60" as="geometry" />
        </mxCell>
        <mxCell id="pO2ebxaiHmQb0jXmbqPL-83" value="" style="endArrow=none;html=1;rounded=0;entryX=0.5;entryY=0;entryDx=0;entryDy=0;exitX=0.5;exitY=1;exitDx=0;exitDy=0;" edge="1" parent="WIyWlLk6GJQsqaUBKTNV-1" source="pO2ebxaiHmQb0jXmbqPL-78" target="pO2ebxaiHmQb0jXmbqPL-82">
          <mxGeometry width="50" height="50" relative="1" as="geometry">
            <mxPoint x="629.5" y="278" as="sourcePoint" />
            <mxPoint x="629.5" y="208" as="targetPoint" />
          </mxGeometry>
        </mxCell>
        <mxCell id="pO2ebxaiHmQb0jXmbqPL-84" value="ax_join" style="rounded=0;whiteSpace=wrap;html=1;" vertex="1" parent="WIyWlLk6GJQsqaUBKTNV-1">
          <mxGeometry x="490" y="360" width="120" height="60" as="geometry" />
        </mxCell>
        <mxCell id="pO2ebxaiHmQb0jXmbqPL-85" value="ax_day" style="rounded=0;whiteSpace=wrap;html=1;" vertex="1" parent="WIyWlLk6GJQsqaUBKTNV-1">
          <mxGeometry x="354" y="460" width="120" height="60" as="geometry" />
        </mxCell>
        <mxCell id="pO2ebxaiHmQb0jXmbqPL-88" value="" style="endArrow=none;html=1;rounded=0;entryX=0.5;entryY=1;entryDx=0;entryDy=0;exitX=0.5;exitY=0;exitDx=0;exitDy=0;" edge="1" parent="WIyWlLk6GJQsqaUBKTNV-1" source="pO2ebxaiHmQb0jXmbqPL-85" target="pO2ebxaiHmQb0jXmbqPL-82">
          <mxGeometry width="50" height="50" relative="1" as="geometry">
            <mxPoint x="424" y="335" as="sourcePoint" />
            <mxPoint x="424" y="370" as="targetPoint" />
          </mxGeometry>
        </mxCell>
        <mxCell id="pO2ebxaiHmQb0jXmbqPL-89" value="" style="endArrow=none;html=1;rounded=0;entryX=1;entryY=0.5;entryDx=0;entryDy=0;exitX=0;exitY=0.5;exitDx=0;exitDy=0;" edge="1" parent="WIyWlLk6GJQsqaUBKTNV-1" source="pO2ebxaiHmQb0jXmbqPL-84" target="pO2ebxaiHmQb0jXmbqPL-82">
          <mxGeometry width="50" height="50" relative="1" as="geometry">
            <mxPoint x="434" y="345" as="sourcePoint" />
            <mxPoint x="434" y="380" as="targetPoint" />
          </mxGeometry>
        </mxCell>
        <mxCell id="pO2ebxaiHmQb0jXmbqPL-90" value="1" style="text;html=1;align=center;verticalAlign=middle;resizable=0;points=[];autosize=1;strokeColor=none;fillColor=none;" vertex="1" parent="WIyWlLk6GJQsqaUBKTNV-1">
          <mxGeometry x="615" y="228" width="30" height="30" as="geometry" />
        </mxCell>
        <mxCell id="pO2ebxaiHmQb0jXmbqPL-91" value="m" style="text;html=1;align=center;verticalAlign=middle;resizable=0;points=[];autosize=1;strokeColor=none;fillColor=none;" vertex="1" parent="WIyWlLk6GJQsqaUBKTNV-1">
          <mxGeometry x="265" y="268" width="30" height="30" as="geometry" />
        </mxCell>
        <mxCell id="pO2ebxaiHmQb0jXmbqPL-92" value="n" style="text;html=1;align=center;verticalAlign=middle;resizable=0;points=[];autosize=1;strokeColor=none;fillColor=none;" vertex="1" parent="WIyWlLk6GJQsqaUBKTNV-1">
          <mxGeometry x="525" y="278" width="30" height="30" as="geometry" />
        </mxCell>
        <mxCell id="pO2ebxaiHmQb0jXmbqPL-93" value="n" style="text;html=1;align=center;verticalAlign=middle;resizable=0;points=[];autosize=1;strokeColor=none;fillColor=none;" vertex="1" parent="WIyWlLk6GJQsqaUBKTNV-1">
          <mxGeometry x="445" y="368" width="30" height="30" as="geometry" />
        </mxCell>
        <mxCell id="pO2ebxaiHmQb0jXmbqPL-94" value="n" style="text;html=1;align=center;verticalAlign=middle;resizable=0;points=[];autosize=1;strokeColor=none;fillColor=none;" vertex="1" parent="WIyWlLk6GJQsqaUBKTNV-1">
          <mxGeometry x="405" y="418" width="30" height="30" as="geometry" />
        </mxCell>
        <mxCell id="pO2ebxaiHmQb0jXmbqPL-95" value="n" style="text;html=1;align=center;verticalAlign=middle;resizable=0;points=[];autosize=1;strokeColor=none;fillColor=none;" vertex="1" parent="WIyWlLk6GJQsqaUBKTNV-1">
          <mxGeometry x="675" y="268" width="30" height="30" as="geometry" />
        </mxCell>
        <mxCell id="pO2ebxaiHmQb0jXmbqPL-96" value="ax_setup" style="rounded=0;whiteSpace=wrap;html=1;" vertex="1" parent="WIyWlLk6GJQsqaUBKTNV-1">
          <mxGeometry x="850" y="140" width="120" height="60" as="geometry" />
        </mxCell>
        <mxCell id="pO2ebxaiHmQb0jXmbqPL-97" value="设置" style="rhombus;whiteSpace=wrap;html=1;rounded=0;fontStyle=1" vertex="1" parent="WIyWlLk6GJQsqaUBKTNV-1">
          <mxGeometry x="730" y="145" width="60" height="50" as="geometry" />
        </mxCell>
        <mxCell id="pO2ebxaiHmQb0jXmbqPL-98" value="" style="endArrow=none;html=1;rounded=0;entryX=1;entryY=0.5;entryDx=0;entryDy=0;exitX=0;exitY=0.5;exitDx=0;exitDy=0;" edge="1" parent="WIyWlLk6GJQsqaUBKTNV-1" source="pO2ebxaiHmQb0jXmbqPL-97" target="pO2ebxaiHmQb0jXmbqPL-64">
          <mxGeometry width="50" height="50" relative="1" as="geometry">
            <mxPoint x="760" y="305" as="sourcePoint" />
            <mxPoint x="660" y="305" as="targetPoint" />
          </mxGeometry>
        </mxCell>
        <mxCell id="pO2ebxaiHmQb0jXmbqPL-99" value="" style="endArrow=none;html=1;rounded=0;entryX=1;entryY=0.5;entryDx=0;entryDy=0;exitX=0;exitY=0.5;exitDx=0;exitDy=0;" edge="1" parent="WIyWlLk6GJQsqaUBKTNV-1" source="pO2ebxaiHmQb0jXmbqPL-96" target="pO2ebxaiHmQb0jXmbqPL-97">
          <mxGeometry width="50" height="50" relative="1" as="geometry">
            <mxPoint x="770" y="315" as="sourcePoint" />
            <mxPoint x="670" y="315" as="targetPoint" />
          </mxGeometry>
        </mxCell>
        <mxCell id="pO2ebxaiHmQb0jXmbqPL-101" value="ax_temp" style="rounded=0;whiteSpace=wrap;html=1;" vertex="1" parent="WIyWlLk6GJQsqaUBKTNV-1">
          <mxGeometry x="324" y="140" width="120" height="60" as="geometry" />
        </mxCell>
        <mxCell id="pO2ebxaiHmQb0jXmbqPL-102" value="使用" style="rhombus;whiteSpace=wrap;html=1;rounded=0;fontStyle=1" vertex="1" parent="WIyWlLk6GJQsqaUBKTNV-1">
          <mxGeometry x="474" y="145" width="60" height="50" as="geometry" />
        </mxCell>
        <mxCell id="pO2ebxaiHmQb0jXmbqPL-103" value="" style="endArrow=none;html=1;rounded=0;entryX=1;entryY=0.5;entryDx=0;entryDy=0;exitX=0;exitY=0.5;exitDx=0;exitDy=0;" edge="1" parent="WIyWlLk6GJQsqaUBKTNV-1" source="pO2ebxaiHmQb0jXmbqPL-102" target="pO2ebxaiHmQb0jXmbqPL-101">
          <mxGeometry width="50" height="50" relative="1" as="geometry">
            <mxPoint x="740" y="180" as="sourcePoint" />
            <mxPoint x="690" y="180" as="targetPoint" />
          </mxGeometry>
        </mxCell>
        <mxCell id="pO2ebxaiHmQb0jXmbqPL-104" value="" style="endArrow=none;html=1;rounded=0;entryX=1;entryY=0.5;entryDx=0;entryDy=0;exitX=0;exitY=0.5;exitDx=0;exitDy=0;" edge="1" parent="WIyWlLk6GJQsqaUBKTNV-1" source="pO2ebxaiHmQb0jXmbqPL-64" target="pO2ebxaiHmQb0jXmbqPL-102">
          <mxGeometry width="50" height="50" relative="1" as="geometry">
            <mxPoint x="750" y="190" as="sourcePoint" />
            <mxPoint x="700" y="190" as="targetPoint" />
          </mxGeometry>
        </mxCell>
        <mxCell id="pO2ebxaiHmQb0jXmbqPL-105" value="1" style="text;html=1;align=center;verticalAlign=middle;resizable=0;points=[];autosize=1;strokeColor=none;fillColor=none;" vertex="1" parent="WIyWlLk6GJQsqaUBKTNV-1">
          <mxGeometry x="535" y="148" width="30" height="30" as="geometry" />
        </mxCell>
        <mxCell id="pO2ebxaiHmQb0jXmbqPL-106" value="1" style="text;html=1;align=center;verticalAlign=middle;resizable=0;points=[];autosize=1;strokeColor=none;fillColor=none;" vertex="1" parent="WIyWlLk6GJQsqaUBKTNV-1">
          <mxGeometry x="695" y="148" width="30" height="30" as="geometry" />
        </mxCell>
        <mxCell id="pO2ebxaiHmQb0jXmbqPL-107" value="1" style="text;html=1;align=center;verticalAlign=middle;resizable=0;points=[];autosize=1;strokeColor=none;fillColor=none;" vertex="1" parent="WIyWlLk6GJQsqaUBKTNV-1">
          <mxGeometry x="815" y="148" width="30" height="30" as="geometry" />
        </mxCell>
        <mxCell id="pO2ebxaiHmQb0jXmbqPL-108" value="m" style="text;html=1;align=center;verticalAlign=middle;resizable=0;points=[];autosize=1;strokeColor=none;fillColor=none;" vertex="1" parent="WIyWlLk6GJQsqaUBKTNV-1">
          <mxGeometry x="445" y="148" width="30" height="30" as="geometry" />
        </mxCell>
        <mxCell id="pO2ebxaiHmQb0jXmbqPL-109" value="1" style="text;html=1;align=center;verticalAlign=middle;resizable=0;points=[];autosize=1;strokeColor=none;fillColor=none;" vertex="1" parent="WIyWlLk6GJQsqaUBKTNV-1">
          <mxGeometry x="405" y="328" width="30" height="30" as="geometry" />
        </mxCell>
      </root>
    </mxGraphModel>
  </diagram>
</mxfile>
